<svg preserveAspectRatio="none" overflow="visible" style="display: block;" width="35" height="31" viewBox="0 0 35 31" fill="none" xmlns="http://www.w3.org/2000/svg">
<g id="fa6-solid:wand-magic-sparkles">
<path id="Vector" d="M14.2613 2.58535L11.9705 3.43906C11.7882 3.50566 11.6667 3.68125 11.6667 3.875C11.6667 4.06875 11.7882 4.24434 11.9705 4.31094L14.2613 5.16465L15.1181 7.44727C15.1849 7.62891 15.3611 7.75 15.5556 7.75C15.75 7.75 15.9262 7.62891 15.9931 7.44727L16.8498 5.16465L19.1406 4.31094C19.3229 4.24434 19.4444 4.06875 19.4444 3.875C19.4444 3.68125 19.3229 3.50566 19.1406 3.43906L16.8498 2.58535L15.9931 0.302734C15.9262 0.121094 15.75 0 15.5556 0C15.3611 0 15.1849 0.121094 15.1181 0.302734L14.2613 2.58535ZM2.80122 23.9402C1.66493 25.0725 1.66493 26.9131 2.80122 28.0514L4.90365 30.1463C6.03993 31.2785 7.88715 31.2785 9.02951 30.1463L32.1988 7.05371C33.3351 5.92148 33.3351 4.08086 32.1988 2.94258L30.0964 0.853711C28.9601 -0.278516 27.1128 -0.278516 25.9705 0.853711L2.80122 23.9402ZM29.4462 5.00117L23.066 11.3586L21.6502 9.94785L28.0304 3.59043L29.4462 5.00117ZM0.455729 7.09609C0.182292 7.19902 0 7.45937 0 7.75C0 8.04062 0.182292 8.30098 0.455729 8.40391L3.88889 9.6875L5.17708 13.1084C5.28038 13.3809 5.54167 13.5625 5.83333 13.5625C6.125 13.5625 6.38629 13.3809 6.48958 13.1084L7.77778 9.6875L11.2109 8.40391C11.4844 8.30098 11.6667 8.04062 11.6667 7.75C11.6667 7.45937 11.4844 7.19902 11.2109 7.09609L7.77778 5.8125L6.48958 2.3916C6.38629 2.11914 6.125 1.9375 5.83333 1.9375C5.54167 1.9375 5.28038 2.11914 5.17708 2.3916L3.88889 5.8125L0.455729 7.09609ZM21.8446 22.5961C21.5712 22.699 21.3889 22.9594 21.3889 23.25C21.3889 23.5406 21.5712 23.801 21.8446 23.9039L25.2778 25.1875L26.566 28.6084C26.6693 28.8809 26.9306 29.0625 27.2222 29.0625C27.5139 29.0625 27.7752 28.8809 27.8785 28.6084L29.1667 25.1875L32.5998 23.9039C32.8733 23.801 33.0556 23.5406 33.0556 23.25C33.0556 22.9594 32.8733 22.699 32.5998 22.5961L29.1667 21.3125L27.8785 17.8916C27.7752 17.6191 27.5139 17.4375 27.2222 17.4375C26.9306 17.4375 26.6693 17.6191 26.566 17.8916L25.2778 21.3125L21.8446 22.5961Z" fill="#75737A"/>
</g>
</svg>
